/* XPM */
static char *result[] = {
/* columns rows colors chars-per-pixel */
"32 32 136 2 ",
"   c #02070F",
".  c #100100",
"X  c #170200",
"o  c #180200",
"O  c #050B10",
"+  c #071011",
"@  c #081011",
"#  c #081012",
"$  c #091112",
"%  c #091113",
"&  c #0A1213",
"*  c #0C1313",
"=  c #290800",
"-  c #340C01",
";  c #360E03",
":  c #3C1100",
">  c #010429",
",  c #00082F",
"<  c #0F1F20",
"1  c #111F20",
"2  c #000132",
"3  c #000034",
"4  c #00013F",
"5  c #000839",
"6  c #010939",
"7  c #00093B",
"8  c #010A3A",
"9  c #1B2C2E",
"0  c #1C3D3D",
"q  c #203234",
"w  c #26373A",
"e  c #4B1700",
"r  c #4B1701",
"t  c #481C13",
"y  c #54261A",
"u  c #56281B",
"i  c #663527",
"p  c #7A4230",
"a  c #000244",
"s  c #000348",
"d  c #01084C",
"f  c #001349",
"g  c #011449",
"h  c #01144B",
"j  c #00144C",
"k  c #000454",
"l  c #000657",
"z  c #002350",
"x  c #012451",
"c  c #012D5C",
"v  c #012E5F",
"b  c #022F5F",
"n  c #2E3F42",
"m  c #000860",
"M  c #000C69",
"N  c #010B6E",
"B  c #011160",
"V  c #010D75",
"C  c #02127A",
"Z  c #061B78",
"A  c #041A7C",
"S  c #051D7F",
"D  c #022F60",
"F  c #012F62",
"G  c #023062",
"H  c #032776",
"J  c #042776",
"K  c #032877",
"L  c #042877",
"P  c #01267E",
"I  c #02267E",
"U  c #032878",
"Y  c #032979",
"T  c #2E4146",
"R  c #2D4644",
"E  c #314447",
"W  c #384F4C",
"Q  c #3D514E",
"!  c #3B4E51",
"~  c #415552",
"^  c #475755",
"/  c #51615F",
"(  c #636D6B",
")  c #905844",
"_  c #A67966",
"`  c #AE7B65",
"'  c #072389",
"]  c #0A298A",
"[  c #063582",
"{  c #053684",
"}  c #053785",
"|  c #063784",
" . c #073E82",
".. c #053885",
"X. c #053987",
"o. c #063886",
"O. c #063A87",
"+. c #073F84",
"@. c #062294",
"#. c #04209A",
"$. c #0A31A1",
"%. c #0A4D93",
"&. c #094C94",
"*. c #094C95",
"=. c #094D95",
"-. c #0A4D96",
";. c #0A4E96",
":. c #0B4F97",
">. c #0B5098",
",. c #1849AA",
"<. c #0329FA",
"1. c #0A65D0",
"2. c #2B6AC1",
"3. c #3771D0",
"4. c #3772D3",
"5. c #0D5DFE",
"6. c #086DFD",
"7. c #128CFF",
"8. c #4582D8",
"9. c #4786DD",
"0. c #4E89DB",
"q. c #4E8ADE",
"w. c #5B94F0",
"e. c #73ACFB",
"r. c #74AEFE",
"t. c #818C8A",
"y. c #A8A8A7",
"u. c #C9A897",
"i. c #9EC5FB",
"p. c #9FC7FE",
"a. c gray78",
"s. c #CECECE",
"d. c #DFE0E0",
"f. c #FEFDFD",
"g. c #FEFEFE",
"h. c None",
/* pixels */
"h.h.h.h.h.h.h.h.h.h.h.h.h.h.h.h.h.h.h.h.h.h.h.h.h.h.h.h.h.h.h.h.",
"h.h.h.h.h.h.h.h.h.h.h.h.h.h.h.h.h.h.h.h.h.h.h.h.h.h.h.h.h.h.h.h.",
"h.h.h.h.h.h.h.h.h.h.h.h.h.X X X X X X h.h.h.h.h.h.h.h.h.h.h.h.h.",
"h.h.h.h.h.h.h.h.h.h.h.h.o _ u.u.u.u.u.o h.h.h.h.h.h.h.h.h.h.h.h.",
"h.h.h.h.h.h.h.h.h.h.h.X p ) ) ` ` ` ` u.o h.h.h.h.h.h.h.h.h.h.h.",
"h.h.h.h.h.h.h.h.h.h.h.. ; p ) ) ` ` ` r o h.h.h.h.h.h.h.h.h.h.h.",
"h.h.h.h.h.h.h.h.h.h.h.X t - - e e r r i o h.h.h.h.h.h.h.h.h.h.h.",
"h.h.h.h.h.h.h.h.h.h.h.h.. t t y u i i X h.h.h.h.h.h.h.h.h.h.h.h.",
"h.h.h.h.h.h.h.h.h.h.h.* W = = = : : : y.@ h.h.h.h.h.h.h.h.h.h.h.",
"h.h.h.h.h.h.h.h.h.h.& W < W ^ t.y.a.g.n s.% h.h.h.h.h.h.h.h.h.h.",
"h.h.h.h.h.h.h.h.h.h.& W R < 9 q n n n g.y.% h.h.h.h.h.h.h.h.h.h.",
"h.h.h.h.h.h.h.h.h.h.h.@ W R W ~ t.t.a.d.@ h.h.h.h.h.h.h.h.h.h.h.",
"h.h.h.h.h.h.h.h.h.h.@ W < < 1 9 w n n n y.@ h.h.h.h.h.h.h.h.h.h.",
"h.h.h.h.h.h.h.h.h.@ W 0 ~ 9 E E ! ! T ( f.y.% h.h.h.h.h.h.h.h.h.",
"h.h.h.h.h.h.h.h.% Q q ~ / / +.>.;.;.;. .( n ! % h.h.h.h.h.h.h.h.",
"h.h.h.h.h.h.h.h.% , | z  .+.r.p.i.i.i.b x %.[ $ h.h.h.h.h.h.h.h.",
"h.h.h.h.h.h.h.h.$ o.7 #.P 0.e.e.e.b b i.i.G F $ h.h.h.h.h.h.h.h.",
"h.h.h.h.h.h.h.h.$ 6.V j 3.v 0.I b e.i.b D p.;.$ h.h.h.h.h.h.h.h.",
"h.h.h.h.h.h.h.h.$ =.N 4.h 3.v 0.e.b D r.r.p.:.$ h.h.h.h.h.h.h.h.",
"h.h.h.h.h.h.h.h.$ 1.k $.4.c 9.v v r.r.r.r.r.;.$ h.h.h.h.h.h.h.h.",
"h.h.h.h.h.h.h.h.$ &.a $.4.B 4.c q.q.q.w.r.q.-.$ h.h.h.h.h.h.h.h.",
"h.h.h.h.h.h.h.h.$ *.a @.$.g 4.c q.q.q.q.q.2.o.$ h.h.h.h.h.h.h.h.",
"h.h.h.h.h.h.h.h.+ { a m @.5 $.f 8.q.8.2.,.Z ..+ h.h.h.h.h.h.h.h.",
"h.h.h.h.h.h.h.h.% L 2 l C 6 $.g 2.,.,.] A 5.H % h.h.h.h.h.h.h.h.",
"h.h.h.h.h.h.h.h.h.O } 3 l 6 $.6 ,.] ' 5.7.X.J $ h.h.h.h.h.h.h.h.",
"h.h.h.h.h.h.h.h.h.h.O K 4 8 M 6 S 5.7.Y X.# @ h.h.h.h.h.h.h.h.h.",
"h.h.h.h.h.h.h.h.h.h.h.# H > M 6 <.U O.@ @ h.h.h.h.h.h.h.h.h.h.h.",
"h.h.h.h.h.h.h.h.h.h.h.h.# > s d H O @ h.h.h.h.h.h.h.h.h.h.h.h.h.",
"h.h.h.h.h.h.h.h.h.h.h.h.h.  H   @ h.h.h.h.h.h.h.h.h.h.h.h.h.h.h.",
"h.h.h.h.h.h.h.h.h.h.h.h.h.h.@ h.h.h.h.h.h.h.h.h.h.h.h.h.h.h.h.h.",
"h.h.h.h.h.h.h.h.h.h.h.h.h.h.h.h.h.h.h.h.h.h.h.h.h.h.h.h.h.h.h.h.",
"h.h.h.h.h.h.h.h.h.h.h.h.h.h.h.h.h.h.h.h.h.h.h.h.h.h.h.h.h.h.h.h."
};
