/* XPM */
static char *result[] = {
/* columns rows colors chars-per-pixel */
"32 32 122 2 ",
"   c #170200",
".  c #180200",
"X  c #190200",
"o  c #081011",
"O  c #091011",
"+  c #0A1112",
"@  c #0A1113",
"#  c #0C1313",
"$  c #240101",
"%  c #2D0000",
"&  c #2E0000",
"*  c #2F0000",
"=  c #2B0800",
"-  c #350101",
";  c #3C0101",
":  c #350B00",
">  c #350C01",
",  c #380D02",
"<  c #3E1100",
"1  c #0F1F20",
"2  c #111F20",
"3  c #1B2C2E",
"4  c #1C3D3D",
"5  c #203234",
"6  c #26373A",
"7  c #430000",
"8  c #460203",
"9  c #4B0102",
"0  c #480202",
"q  c #530000",
"w  c #520101",
"e  c #540000",
"r  c #540101",
"t  c #550101",
"y  c #550303",
"u  c #570303",
"i  c #540304",
"p  c #5D0202",
"a  c #4B1701",
"s  c #4D1700",
"d  c #4D1701",
"f  c #481C13",
"g  c #610404",
"h  c #620606",
"j  c #640505",
"k  c #690001",
"l  c #680102",
"z  c #6A0102",
"x  c #6F0101",
"c  c #7B0000",
"v  c #7A0001",
"b  c #7B0001",
"n  c #7B0101",
"m  c #7A0102",
"M  c #7C0001",
"N  c #7C0102",
"B  c #7D0102",
"V  c #7D0203",
"C  c #780A0A",
"Z  c #7A0E0E",
"A  c #56281B",
"S  c #663527",
"D  c #7A4230",
"F  c #2E3F42",
"G  c #2D4644",
"H  c #314447",
"J  c #384F4C",
"K  c #3D514E",
"L  c #3B4E51",
"P  c #415552",
"I  c #475755",
"U  c #51615F",
"Y  c #636D6B",
"T  c #810A0B",
"R  c #810E0E",
"E  c #860D0E",
"W  c #870E0E",
"Q  c #870F0F",
"!  c #8B0E0F",
"~  c #8A0F0F",
"^  c #920606",
"/  c #930606",
"(  c #920707",
")  c #9E1314",
"_  c #AA0606",
"`  c #B70405",
"'  c #AF1B1D",
"]  c #BF2325",
"[  c #C70C0C",
"{  c #C70D0D",
"}  c #C70D0E",
"|  c #C71517",
" . c #FC1313",
".. c #C7272A",
"X. c #E22A2D",
"o. c #FF2224",
"O. c #FC2B2D",
"+. c #FF2B2D",
"@. c #FF2D30",
"#. c #FC3337",
"$. c #FF363A",
"%. c #935C47",
"&. c #AE7B65",
"*. c #AA7D6A",
"=. c #FF464D",
"-. c #FF484B",
";. c #FC4D51",
":. c #FC565B",
">. c #FF5C61",
",. c #FF5C64",
"<. c #818C8A",
"1. c #A8A8A7",
"2. c #FC898C",
"3. c #FF8795",
"4. c #C9A897",
"5. c gray78",
"6. c #CECECE",
"7. c #FCCBD0",
"8. c #DFE0E0",
"9. c #FEFDFD",
"0. c #FEFEFE",
"q. c None",
/* pixels */
"q.q.q.q.q.q.q.q.q.q.q.q.q.q.q.q.q.q.q.q.q.q.q.q.q.q.q.q.q.q.q.q.",
"q.q.q.q.q.q.q.q.q.q.q.q.q.q.q.q.q.q.q.q.q.q.q.q.q.q.q.q.q.q.q.q.",
"q.q.q.q.q.q.q.q.q.q.q.q.q.            q.q.q.q.q.q.q.q.q.q.q.q.q.",
"q.q.q.q.q.q.q.q.q.q.q.q.. *.4.4.4.4.4.. q.q.q.q.q.q.q.q.q.q.q.q.",
"q.q.q.q.q.q.q.q.q.q.q.  D %.%.%.&.&.&.4.. q.q.q.q.q.q.q.q.q.q.q.",
"q.q.q.q.q.q.q.q.q.q.q.X , D %.%.%.&.&.a . q.q.q.q.q.q.q.q.q.q.q.",
"q.q.q.q.q.q.q.q.q.q.q.X f > > : s d d S . q.q.q.q.q.q.q.q.q.q.q.",
"q.q.q.q.q.q.q.q.q.q.q.q.. f f A A S S . q.q.q.q.q.q.q.q.q.q.q.q.",
"q.q.q.q.q.q.q.q.q.q.q.# J = = = = < < 1.o q.q.q.q.q.q.q.q.q.q.q.",
"q.q.q.q.q.q.q.q.q.q.@ J 1 J I <.1.5.0.F 6.@ q.q.q.q.q.q.q.q.q.q.",
"q.q.q.q.q.q.q.q.q.q.@ J G 1 3 5 F F F 0.1.@ q.q.q.q.q.q.q.q.q.q.",
"q.q.q.q.q.q.q.q.q.q.q.o J G J P <.<.5.8.o q.q.q.q.q.q.q.q.q.q.q.",
"q.q.q.q.q.q.q.q.q.q.o J 1 1 2 3 6 F F F 1.o q.q.q.q.q.q.q.q.q.q.",
"q.q.q.q.q.q.q.q.q.o J 4 P 3 H H L L F Y 9.1.@ q.q.q.q.q.q.q.q.q.",
"q.q.q.q.q.q.q.q.o K 5 P U U k N B B V l Y F L @ q.q.q.q.q.q.q.q.",
"q.q.q.q.q.q.q.q.@ $ m 7 l z ,.#.:.:.2.E R m m + q.q.q.q.q.q.q.q.",
"q.q.q.q.q.q.q.q.+ ( &  .q ;.O.#.#.W W :.2.Q w + q.q.q.q.q.q.q.q.",
"q.q.q.q.q.q.q.q.+ n 8 *  .r O.W W #.:.W W 7.m + q.q.q.q.q.q.q.q.",
"q.q.q.q.q.q.q.q.+ ( 8 C & ~ r +.O.Z E $.-.>.m + q.q.q.q.q.q.q.q.",
"q.q.q.q.q.q.q.q.+ n ; h C & ' * r ] ] @.X.3.m + q.q.q.q.q.q.q.q.",
"q.q.q.q.q.q.q.q.+ ( ; y C & ~ r ] ] ] @.] @.m + q.q.q.q.q.q.q.q.",
"q.q.q.q.q.q.q.q.+ ( % 0 h & ! e ) ] ] ] ] =.m + q.q.q.q.q.q.q.q.",
"q.q.q.q.q.q.q.q.o / % ; y % ! q ) ) ) ) T o.b o q.q.q.q.q.q.q.q.",
"q.q.q.q.q.q.q.q.+ n p - 0 & ! * ) ) T T g } m + q.q.q.q.q.q.q.q.",
"q.q.q.q.q.q.q.q.q.+ ^ x % & j * T T g { ..N m + q.q.q.q.q.q.q.q.",
"q.q.q.q.q.q.q.q.q.q.+ c t & i & u [ | b M + + q.q.q.q.q.q.q.q.q.",
"q.q.q.q.q.q.q.q.q.q.q.+ c & 9 * _ b b + + q.q.q.q.q.q.q.q.q.q.q.",
"q.q.q.q.q.q.q.q.q.q.q.q.+ & ` & b + + q.q.q.q.q.q.q.q.q.q.q.q.q.",
"q.q.q.q.q.q.q.q.q.q.q.q.q.O v O + q.q.q.q.q.q.q.q.q.q.q.q.q.q.q.",
"q.q.q.q.q.q.q.q.q.q.q.q.q.q.+ q.q.q.q.q.q.q.q.q.q.q.q.q.q.q.q.q.",
"q.q.q.q.q.q.q.q.q.q.q.q.q.q.q.q.q.q.q.q.q.q.q.q.q.q.q.q.q.q.q.q.",
"q.q.q.q.q.q.q.q.q.q.q.q.q.q.q.q.q.q.q.q.q.q.q.q.q.q.q.q.q.q.q.q."
};
