/* XPM */
static char *result[] = {
/* columns rows colors chars-per-pixel */
"32 32 64 1 ",
"  c #0A0000",
". c #0B0000",
"X c #110100",
"o c #170200",
"O c #180200",
"+ c #190200",
"@ c #210100",
"# c #2F0300",
"$ c #2F0401",
"% c #300300",
"& c #310300",
"* c #320400",
"= c #340B00",
"- c #340C01",
"; c #4C0100",
": c #470A00",
"> c #470B01",
", c #490A00",
"< c #471103",
"1 c #4C1700",
"2 c #4C1701",
"3 c #4F1902",
"4 c #481C13",
"5 c #630100",
"6 c #7D0100",
"7 c #56281B",
"8 c #663527",
"9 c #7A4230",
"0 c #841300",
"q c #A30100",
"w c #972600",
"e c #B33F17",
"r c #D91900",
"t c #EC0200",
"y c #FF0200",
"u c #E51900",
"i c #FF1D00",
"p c #C92001",
"a c #DF3601",
"s c #FF2800",
"d c #FF3200",
"f c #FF3900",
"g c #FB3D01",
"h c #FF3C00",
"j c #F95E01",
"k c #FF531C",
"l c #FF5F1F",
"z c #FC6601",
"x c #FF6207",
"c c #D1552A",
"v c #FF7033",
"b c #935C47",
"n c #AE7B65",
"m c #AA7D6A",
"M c #FCB301",
"N c #FF8927",
"B c #FF8543",
"V c #FF9849",
"C c #FFB947",
"Z c #FFB753",
"A c #FFAE6E",
"S c #FCE27E",
"D c #C9A897",
"F c None",
/* pixels */
"FFFFFFFFFFFFFFFFFFFFFFFFFFFFFFFF",
"FFFFFFFFFFFFFXoooo+FFFFFFFFFFFFF",
"FFFFFFFFFFFFXmDDDDD+FFFFFFFFFFFF",
"FFFFFFFFFFFX9bbnnnnDOFFFFFFFFFFF",
"FFFFFFFFFFFX-9bbnnn3OFFFFFFFFFFF",
"FFFFFFFFFFF+4--11228OFFFFFFFFFFF",
"FFFFFFFFFFFFX447788+FFFFFFFFFFFF",
"FFFFFFFFFFF.w--=122N.FFFFFFFFFFF",
"FFFFFFFFFF.0$0wwelC$B.FFFFFFFFFF",
"FFFFFFFFFF.50&&@%**kw.FFFFFFFFFF",
"FFFFFFFFFFF.55550udw.FFFFFFFFFFF",
"FFFFFFFFFF.5$>>::><$c.FFFFFFFFFF",
"FFFFFFFFF.;50$$##$$eeV.FFFFFFFFF",
"FFFFFFFF.;&;500weeefl<$.FFFFFFFF",
"FFFFFFFF.$6$5ti0wff><ix.FFFFFFFF",
"FFFFFFFF.;$q$55ii,,ih<$.FFFFFFFF",
"FFFFFFFF.;t&q&5$>is><lZ.FFFFFFFF",
"FFFFFFFF.;5i$q$qr>>lfeA.FFFFFFFF",
"FFFFFFFF.;j0i$y&&fwwMeB.FFFFFFFF",
"FFFFFFFF.;a00$y&50wMwev.FFFFFFFF",
"FFFFFFFF.;5M0$y&50zSwev.FFFFFFFF",
"FFFFFFFF.;aM0$q&50M0wwk.FFFFFFFF",
"FFFFFFFF.;pj0$q&5zS0Mwk.FFFFFFFF",
"FFFFFFFF.;5a0$q&5gMMz0d.FFFFFFFF",
"FFFFFFFF.;;;;$5&50gz0au.FFFFFFFF",
"FFFFFFFFF.;p;$5&;00000u.FFFFFFFF",
"FFFFFFFFFF.;;$5&;p500..FFFFFFFFF",
"FFFFFFFFFFF.;$;&;55..FFFFFFFFFFF",
"FFFFFFFFFFFF.$;&;..FFFFFFFFFFFFF",
"FFFFFFFFFFFFF.;  FFFFFFFFFFFFFFF",
"FFFFFFFFFFFFFF.FFFFFFFFFFFFFFFFF",
"FFFFFFFFFFFFFFFFFFFFFFFFFFFFFFFF"
};
