/* XPM */
static char *result[] = {
/* columns rows colors chars-per-pixel */
"32 32 81 1 ",
"  c #090000",
". c #0B0000",
"X c #0D0000",
"o c #0F0000",
"O c #110000",
"+ c #120000",
"@ c #170000",
"# c #190500",
"$ c #1B0500",
"% c #1F0700",
"& c #130800",
"* c #180D00",
"= c #230200",
"- c #240200",
"; c #270200",
": c #2B0400",
"> c #240800",
", c #2A0A00",
"< c #310300",
"1 c #350700",
"2 c #380400",
"3 c #3F0600",
"4 c #3A0800",
"5 c #3D0800",
"6 c #351000",
"7 c #311700",
"8 c #3E1500",
"9 c #352000",
"0 c #3E2400",
"q c #430A00",
"w c #440A00",
"e c #4C0800",
"r c #4F0C00",
"t c #4E0E01",
"y c #411700",
"u c #471A00",
"i c #4A1E00",
"p c #521000",
"a c #571300",
"s c #5B1101",
"d c #5F1300",
"f c #591400",
"g c #5F1500",
"h c #6A1800",
"j c #691B00",
"k c #6A1E00",
"l c #6C1E00",
"z c #6F1F00",
"x c #7A1D00",
"c c #5B2200",
"v c #592A00",
"b c #4E3A00",
"n c #782400",
"m c #7A2304",
"M c #735200",
"N c #802A00",
"B c #892F00",
"V c #8C2A04",
"C c #844704",
"Z c #894600",
"A c #8F5005",
"S c #A54100",
"D c #A05D00",
"F c #BE5D0E",
"G c #8D6E0D",
"H c #A16100",
"J c #A06308",
"K c #AD7009",
"L c #D77B1C",
"P c #BD8100",
"I c #B5821D",
"U c #FBB700",
"Y c #CE9832",
"T c #D0A72B",
"R c #DBB435",
"E c #F9D45B",
"W c #FFD76A",
"Q c #FCE27C",
"! c #FCEAB1",
"~ c #FFF4C8",
"^ c None",
/* pixels */
"^^^^^^^^^^^^^^^^^^^^^^^^^^^^^^^^",
"^^^^^^^^^^^^^^^^^^^^^^^^^^^^^^^^",
"^^^^^^^^^^^^^^^^^^^^^^^^^^^^^^^^",
"^^^^^^^^^^^^^^^^^^^^^^^^^^^^^^^^",
"^^^^^^^^^^^^^^^^^^^^^^^^^^^^^^^^",
"^^^^^^^^^^^^^^^^^^^^^^^^^^^^^^^^",
"^^^^^^^^^^^^^^^^^^^^^^^^^^^^^^^^",
"^^^^^^^^^^^^^^^^^^^^^^^^^^^^^^^^",
"^^^^**@@@@@@@@@@@@@@@@**^^^^^^^^",
"^^^*QI00NSSFLLFFSSSNNbYA*+@o^^^^",
"^^*!I0NNNNNNNSSSnjggbQA7hVtwO^^^",
"^^*E0eeeeeeeeNNNNNjbQA7hxddd-X^^",
"^*QI0NSSFFLLLeeeeeb!YA7pd222rwO^",
"^*EJ0ggjnSSbSFFFSSbQA7e22VVx54@^",
"^%vvvvvNNSb!bSSnjgbEA7hVxdf88,#^",
"^%~WUPPvvvbEbvvNNzbEC7p8888DZc%^",
"^^%iiiiUPHbRbHPvvvvvvuyDDZZ66>$^",
"^^*KC0jii9TbG9iPUWUPHuZ6666=1o^^",
"^^^*R0SNe9GGM9eiiiiiiu6f<hq;wo^^",
"^^^*E0FNej9M9a3kka0KC7hl2xd;ro^^",
"^^^*Q0FNeSk9kBNeSNbQK7mN2V;s5o^^",
"^^^*!R0LeFN3LSNeSNb!K7mN2V;s.^^^",
"^^^^*Q0FNeLeFSNeFSNbE7heVd;ro^^^",
"^^^^*E0FNeFNeFNeLSNbQ7peV5;1o^^^",
"^^^^*R0SNeFNeFSNeLNb!7p;r5=qo^^^",
"^^^^**@@jeSjeSSNeFNbE71=w:.@^^^^",
"^^^^^^^^@@@@@@@jeSjbR74 .O^^^^^^",
"^^^^^^^^^^^^^^^@@@@@*&X^^^^^^^^^",
"^^^^^^^^^^^^^^^^^^^^^^^^^^^^^^^^",
"^^^^^^^^^^^^^^^^^^^^^^^^^^^^^^^^",
"^^^^^^^^^^^^^^^^^^^^^^^^^^^^^^^^",
"^^^^^^^^^^^^^^^^^^^^^^^^^^^^^^^^"
};
