/* XPM */
static char *a2732654ca35420ecfb08b8dc94bac53BM3K0Rv63pqyGYjc[] = {
/* columns rows colors chars-per-pixel */
"32 32 132 2 ",
"   c None",
".  c #070A00",
"X  c #070B06",
"o  c #170200",
"O  c #180200",
"+  c #081011",
"@  c #091111",
"#  c #091112",
"$  c #091113",
"%  c #0A1212",
"&  c #0C1313",
"*  c #260F01",
"=  c #290800",
"-  c #340C01",
";  c #360E03",
":  c #3C1100",
">  c #341900",
",  c #351A00",
"<  c #3B1900",
"1  c #3A1801",
"2  c #3C1900",
"3  c #3E1A00",
"4  c #0F1F20",
"5  c #111F20",
"6  c #1B2C2E",
"7  c #1C3D3D",
"8  c #203234",
"9  c #26373A",
"0  c #4B1700",
"q  c #4B1701",
"w  c #411D00",
"e  c #481C13",
"r  c #472100",
"t  c #472200",
"y  c #4C2600",
"u  c #4C2700",
"i  c #4E2C00",
"p  c #4F2C00",
"a  c #4F2D00",
"s  c #4E2C01",
"d  c #502D00",
"f  c #512E01",
"g  c #542D00",
"h  c #4F3101",
"j  c #5C3201",
"k  c #5C3400",
"l  c #5E3800",
"z  c #5C3C01",
"x  c #5F3D01",
"c  c #56281B",
"v  c #643A01",
"b  c #663C01",
"n  c #693D01",
"m  c #663527",
"M  c #5E4202",
"N  c #614201",
"B  c #6F4500",
"V  c #6F4602",
"C  c #704802",
"Z  c #6C5101",
"A  c #6D5101",
"S  c #705201",
"D  c #795000",
"F  c #795100",
"G  c #795202",
"H  c #7C5500",
"J  c #7D5703",
"K  c #7E5C01",
"L  c #7D5C02",
"P  c #7F5D02",
"I  c #7A4230",
"U  c #2E3F42",
"Y  c #2D4644",
"T  c #314447",
"R  c #384F4C",
"E  c #3D514E",
"W  c #3B4E51",
"Q  c #415552",
"!  c #475755",
"~  c #51615F",
"^  c #636D6B",
"/  c #835E03",
"(  c #9D5F00",
")  c #886604",
"_  c #8F6D01",
"`  c #8F6D02",
"'  c #80640D",
"]  c #896F0D",
"[  c #906E01",
"{  c #916F01",
"}  c #916F02",
"|  c #976B0E",
" . c #986C0D",
".. c #8C700D",
"X. c #8D710D",
"o. c #947506",
"O. c #9F7510",
"+. c #997F13",
"@. c #A06000",
"#. c #BC7903",
"$. c #A07610",
"%. c #935C47",
"&. c #AE7B65",
"*. c #AA7D6A",
"=. c #9A8014",
"-. c #9A8015",
";. c #B08E1A",
":. c #B5921B",
">. c #D19204",
",. c #E5A800",
"<. c #E5AD00",
"1. c #C4A827",
"2. c #CAB12C",
"3. c #FFFF0B",
"4. c #D9CA3F",
"5. c #DBCC3F",
"6. c #FFFF38",
"7. c #FBEB53",
"8. c #FEEE54",
"9. c #FFFF6B",
"0. c #FFFF71",
"q. c #818C8A",
"w. c #A8A8A7",
"e. c #C9A897",
"r. c #FBF191",
"t. c #FCFCB9",
"y. c #FFFFBB",
"u. c gray78",
"i. c #CECECE",
"p. c #DFE0E0",
"a. c #FEFDFD",
"s. c #FEFEFE",
/* pixels */
"                                                                ",
"                                                                ",
"                          o o o o o o                           ",
"                        O *.*.e.e.e.e.O                         ",
"                      o I %.%.%.&.&.&.e.O                       ",
"                      o ; I %.%.%.&.&.0 O                       ",
"                      o e ; ; 0 0 0 0 m O                       ",
"                        o e e c c m m o                         ",
"                      & R = = = : : : w.$                       ",
"                    $ R 4 R ! q.w.u.a.U i.$                     ",
"                    $ R Y 4 6 8 U U U a.w.$                     ",
"                      $ R Y R Q q.q.u.p.$                       ",
"                    $ R 4 4 5 6 9 U U U w.$                     ",
"                  $ R 7 Q 6 T T W W U ^ a.w.$                   ",
"                . E 8 Q ~ ~ P } } } } P ^ U W $                 ",
"                $   n h P P 7.7.r.r.t.X.M ` ` $                 ",
"                $ } , | x 4.4.7.7.' =.r.t.+.S $                 ",
"                $ ` v , | x 4.N ] 7.7.X.=.t.} $                 ",
"                $ J v  .p ;.Z 4.4.N X.8.0.t.} $                 ",
"                $ ` j J  .p O.N Z 5.5.5.8.9.} $                 ",
"                $ J u b  .p $.d 1.5.5.5.5.9.} $                 ",
"                $ V u V J p $.d 1.1.1.1.2.6.} $                 ",
"                $ V t g J p / p :.1.1.:.o.3.} $                 ",
"                $ ` w u V < / d o.o.) ) J >.} $                 ",
"                  $ } 3 u < G d ) ) C #.<.G G $                 ",
"                    $ } 3 * k < l @.,.G G X $                   ",
"                      $ } * k < ( G G $ $                       ",
"                        $ < t 3 G $ $                           ",
"                          $ ` . $                               ",
"                            $                                   ",
"                                                                ",
"                                                                "
};
