/* XPM */
static char *result[] = {
/* columns rows colors chars-per-pixel */
"32 32 85 1 ",
"  c #1B0400",
". c #240000",
"X c #200500",
"o c #220500",
"O c #2F0000",
"+ c #280600",
"@ c #270800",
"# c #380D01",
"$ c #391604",
"% c #063700",
"& c #441101",
"* c #431905",
"= c #461F08",
"- c #501502",
"; c #600000",
": c #6B0000",
"> c #7D0000",
", c #532408",
"< c #50250A",
"1 c #682C0A",
"2 c #61300E",
"3 c #66350F",
"4 c #6C3209",
"5 c #733200",
"6 c #783400",
"7 c #7F3B0A",
"8 c #7C390E",
"9 c #783E11",
"0 c #084400",
"q c #0B5200",
"w c #2A7301",
"e c #7A4416",
"r c #800000",
"t c #910000",
"y c #920000",
"u c #A50000",
"i c #A10500",
"p c #BA0200",
"a c #BC0000",
"s c #B61000",
"d c #B81600",
"f c #BA1E00",
"g c #813700",
"h c #873E0B",
"j c #CF2200",
"k c #E32800",
"l c #FF3D00",
"z c #9C4200",
"x c #9F490C",
"c c #8E4F19",
"v c #8F4F19",
"b c #8D561B",
"n c #BA4D00",
"m c #A75C1C",
"M c #AA661E",
"N c #B3621D",
"B c #A45F20",
"V c #A66121",
"C c #AE7930",
"Z c #B17C32",
"A c #E34500",
"S c #FF4600",
"D c #E35F00",
"F c #FF5D00",
"G c #FF6A00",
"H c #FF7B00",
"J c #C07024",
"K c #CF7726",
"L c #438E01",
"P c #5EAB02",
"I c #74D501",
"U c #E38C00",
"Y c #FFAD00",
"T c #D28F37",
"R c #D59239",
"E c #F18A2A",
"W c #D09C46",
"Q c #FAB850",
"! c #F0BD5B",
"~ c #FFC554",
"^ c #FFDF68",
"/ c #FFEF6D",
"( c #FFFF7C",
") c #FFFFD5",
"_ c None",
/* pixels */
"________________________________",
"________________________________",
"________________________________",
"________________________________",
"____________________O_____._____",
"___________________OUO___@;.____",
"__________________@uDsO@@b;n.___",
"_____________O____@uAs>T!C;fp.__",
"_____________OO__@Zuks>T(%C;y.__",
"____________@aYOO6~uks>T%w%;r.__",
"____________@aHjtM^/ui>Q^%Cb;r._",
"______O____@ZaFjtT0)/u>QTTTCb;._",
"______OO@@@z^aljt0L0(!>TTCbbbb@_",
"______OYtbR^((adtT0(QCCCbb5555@_",
"______OHjtC(q)/at!^QCC5555####@_",
"______OGljtqPq(!tWCC55####<=$$@_",
"______OFljtCq(^WCCg5&#422<=$$ __",
"_O___@ZaFjtC!^WCgg&&44Be3=$$ ___",
"_OO_@6^(adtC!WCg&&44BBe3=$$ ____",
"_OYOT^(q)atWCgg&44BBBe3=$$ _____",
"_OHSt(qIq^WCg&&4VBBce3=$  ______",
"__OGtC(q(WCg&44JBce3=*X ________",
"__OFjtC(QCg-7VEJv9,,XX__________",
"___OdtCWCg-7KEmv,,XX____________",
"____:tbC5#7KEN,,XX______________",
"____@tb5#xKK81XX________________",
"_____@b5#x88+ __________________",
"______@#h+oX____________________",
"_______@o_______________________",
"________________________________",
"________________________________",
"________________________________"
};
