/* XPM */
static char *de085a9ad2764415957a2cae31b61937pTuD8mc2q2DG4bk3[] = {
/* columns rows colors chars-per-pixel */
"32 32 76 1 ",
"  c None",
". c #260003",
"X c #C35429",
"o c #140001",
"O c #BA2423",
"+ c #48060F",
"@ c #912121",
"# c #0C0001",
"$ c #050001",
"% c #BB2336",
"& c #701629",
"* c #5C0C21",
"= c #901129",
"- c #3D001C",
"; c #38000E",
": c #25000F",
"> c #4F0320",
", c #6C0323",
"< c #53001F",
"1 c #4D0719",
"2 c #180009",
"3 c #210013",
"4 c #150019",
"5 c #1D011E",
"6 c #240008",
"7 c #202437",
"8 c #701151",
"9 c #901E5F",
"0 c #34001F",
"q c #04050C",
"w c #48516A",
"e c #210120",
"r c #410838",
"t c #521041",
"y c #260028",
"u c #030004",
"i c #000001",
"p c #3E445B",
"a c #54667F",
"s c #010104",
"d c #10111F",
"f c #480639",
"g c #31002C",
"h c #8AB4DB",
"j c #080A17",
"k c #36486F",
"l c #1E283E",
"z c #131520",
"x c #0B0C16",
"c c #040408",
"v c #242A38",
"b c #0A0A13",
"n c #110110",
"m c #1B001D",
"M c #303E5D",
"N c #496391",
"B c #5880C7",
"V c #191D28",
"C c #1B1E2D",
"Z c #250224",
"A c #020003",
"S c #303A49",
"D c #415679",
"F c #486491",
"G c #293851",
"H c #2B0226",
"J c #020002",
"K c #0F111C",
"L c #010003",
"P c #4C0040",
"I c #020004",
"U c #640052",
"Y c #BC502A",
"T c #A0C9E9",
"R c #EA8434",
"E c #B2DBF6",
/* pixels */
"                                ",
"    .                           ",
"     ..                         ",
"     .Xo                        ",
" .   oOo                        ",
"  ..o+@Oo                       ",
"  .XO@+@o                       ",
"   ooO@+o                       ",
"     ooo@o ## ## $$             ",
"        o@#%&#%*$=-$$$          ",
"         o#*;&*:>-:=,<$$        ",
"           ##*1232455,>-$       ",
"             #67748985500qqq    ",
"             q7w4eeertyuipwaq   ",
"         sssqwd4898fegry4iqqhj  ",
"       ssklzxcvbbbr8fngymq  jj  ",
"      sMNBklVzcMMCbgrZAmiwqq  j ",
"     svSDFGvVVzcFMCbHmAmJqwaq   ",
"     sdvSGvdxzKcMvCLmiiJ  qqhj  ",
"     oPdvvdPzzKcvCzIipw7q   jj  ",
"    o@+UvCUz+KKcCzKssqqwaq   j  ",
"    o@+zzzz+@+spiKs    qhj      ",
"    oY+KssK+Yo qwq      jTj     ",
"   qwoR.  .Ro   qwq      jj     ",
"  qaq .. ...    qaq       j     ",
"  jhj           jhj             ",
"   jEj         jEj              ",
"    jj         jj               ",
"     j         j                ",
"                                ",
"                                ",
"                                "
};
