/* XPM */
static char *_3e309ddf907480fdc49dcc259f924c3wDmR5uQcgsWdl7Lw[] = {
/* columns rows colors chars-per-pixel */
"32 32 76 1 ",
"  c None",
". c #000001",
"X c #010003",
"o c #020002",
"O c #020003",
"+ c #050001",
"@ c #010104",
"# c #020004",
"$ c #030004",
"% c #0C0001",
"& c #040408",
"* c #04050C",
"= c #140001",
"- c #180009",
"; c #0A0A13",
": c #080A17",
"> c #0B0C16",
", c #110110",
"< c #150019",
"1 c #1B001D",
"2 c #1D011E",
"3 c #0F111C",
"4 c #10111F",
"5 c #260003",
"6 c #240008",
"7 c #25000F",
"8 c #38000E",
"9 c #210013",
"0 c #34001F",
"q c #3D001C",
"w c #131520",
"e c #191D28",
"r c #1B1E2D",
"t c #210120",
"y c #250224",
"u c #2B0226",
"i c #260028",
"p c #31002C",
"a c #1E283E",
"s c #202437",
"d c #242A38",
"f c #48060F",
"g c #4D0719",
"h c #53001F",
"j c #4F0320",
"k c #5C0C21",
"l c #480639",
"z c #410838",
"x c #6C0323",
"c c #701629",
"v c #303A49",
"b c #293851",
"n c #303E5D",
"m c #4C0040",
"M c #521041",
"N c #640052",
"B c #701151",
"V c #3E445B",
"C c #36486F",
"Z c #48516A",
"A c #415679",
"S c #54667F",
"D c #901129",
"F c #912121",
"G c #BA2423",
"H c #BB2336",
"J c #BC502A",
"K c #C35429",
"L c #901E5F",
"P c #EA8434",
"I c #496391",
"U c #486491",
"Y c #5880C7",
"T c #8AB4DB",
"R c #A0C9E9",
"E c #B2DBF6",
/* pixels */
"                                ",
"                                ",
"                           5    ",
"                         55     ",
"                        =K5     ",
"                        =G=   5 ",
"                       =GFf=55  ",
"                       =FfFGK5  ",
"                       =fFG==   ",
"             ++ %% %% =F===     ",
"          +++qD+kH%cH%F=        ",
"        ++hxD7qj7kc8k%=         ",
"       +qjx22<-9-gk%%           ",
"    ***0022BLB<ss6%             ",
"   *SZV.$iMzttt<Zs*             ",
"  :T**.<izptlBLB<4Z*$$$         ",
"  ::  *1ip,lBz;;;d&>waC$$       ",
" :  **Z.1.yzp;rnn&weaCYIn$      ",
"   *SZ*.1.1u;rnU&weedbUAvd$     ",
"  :T**  ...1.rdn&3w>4dbvd4$     ",
"  ::   *sZV.$wrd&3wwm4dd4m=     ",
"  :   *SZ**$$3wr&33fwNrdNfF=    ",
"      :T*    $3.V$fFfwwwwfF=    ",
"     :R:      *Z* =Jf3$$3fJ=    ",
"     ::      *Z*   =P5  5P=Z*   ",
"     :       *S*    555 55 *S*  ",
"             :T:           :T:  ",
"              :E:         :E:   ",
"               ::         ::    ",
"                :         :     ",
"                                ",
"                                "
};
