/* XPM */
static char *result[] = {
/* columns rows colors chars-per-pixel */
"32 32 8 1 ",
"  c #2E2F31",
". c #353739",
"X c #3A3C3F",
"o c #3F4144",
"O c #44464A",
"+ c #4B4D50",
"@ c #525457",
"# c None",
/* pixels */
"XX.o...... ..Oo oooooX..oX oo Xo",
"XOXO+OOX+O.OOOo.OX++OOO.+OOOO.OO",
"o+XO+Oo.OOX+OOXo+XOOOOO.+++OO.O+",
".X XX ..X XX XX..XooXXX X.X.X..X",
"++O+OX@@@o@+o++oO+@@@+@X@++O+@o+",
"X. .. oOX .. X. .oOoX.o ..X..o .",
"+o@@+o@+@++O+O+o@++++++X@o+@@@+O",
"OX++OX@+++OX+OO.OOOOOoo.@Oo@++OO",
"o.XoX.ooO X.XXO.XX.XX.o.o XOo oX",
"@@O@@++@+o+@+O@@+OO@@o+++X@@@X++",
"Xo Xo.... XX..XXX  Oo .Xo XOX .X",
"OXOo.o+OO.O++OOOXooXOX.+OoXo+Ooo",
"+o@+o+@@@o@@@@@@OOOO@+O@@+OO++++",
". .X...XX....X.oX. .X..oXOX .XX.",
"@+X+++XO+@+OO+o@@++OO@+O+@@o++@@",
"++.OOO.X.OO.XO.OXXo..Oo..OO oOOo",
"o. .XX .  ++OOXX.+oO+Oo.XOOOO.O+",
"@@+oO++O+.+++OO+o@+++OOoo++++X+@",
"OOO.o+O+O XXXXoo oooXXX. .Xo. oO",
"X.. .X..OoOoOXooooOOoooX Ooo.XXo",
"@o+++Ooo++++@OO++OO@+++OX++Oo+Oo",
"..oOoo ..X..X .oX. .X.XX .X.  oX",
" O+++OX++XX++X+++OO.+++++XO++X@@",
" XOO+o.OOXXoo.O+ooX.O+O++.OOO O+",
" o.XOo. ooXo XXoX.o..ooOo .XX Xo",
"o@X@@@+o@+++X@@@+O@+o+@@+oO++X@@",
" X .oX. XX.X .XX..X..XXXX .o. XX",
"++X+++o+@@OO++X@++Oo@+++OX@+oO@O",
"Oo.OO+oOOoXXOOXoOOoX++OOo.+oo.Oo",
"Oo o..XoX .XXO .oOX XOoX .X.X.X ",
"@@O@OO@@+X@@++o+@@+O+@+OO@+O@++O",
"################################"
};
